<svg id="visual" viewBox="0 0 900 450" width="900" height="450" xmlns="http://www.w3.org/2000/svg"
  xmlns:xlink="http://www.w3.org/1999/xlink" version="1.1">
  <rect width="900" height="450" fill="#202731"></rect>
  <g>
    <g transform="translate(767 106)">
      <path
        d="M59.6 -74C73.8 -59.2 79.4 -37.1 86.1 -13.1C92.7 10.8 100.5 36.7 93.2 58C85.9 79.4 63.6 96.4 38.3 106C13 115.5 -15.3 117.7 -41.4 109.9C-67.5 102.1 -91.4 84.3 -101.5 61.3C-111.6 38.2 -108 9.9 -98.6 -12.9C-89.2 -35.6 -74 -52.8 -56.6 -67.1C-39.2 -81.3 -19.6 -92.7 1.6 -94.5C22.7 -96.4 45.5 -88.9 59.6 -74Z"
        fill="#3c31dd"></path>
    </g>
    <g transform="translate(520 240)">
      <path
        d="M37.3 -48.5C44.1 -38.6 42.6 -22.9 43.1 -9.2C43.5 4.5 45.9 16.2 42.8 27.6C39.7 39.1 31 50.2 19.6 54.9C8.1 59.6 -6.1 57.8 -14 50C-21.8 42.1 -23.2 28.2 -29.3 17.1C-35.5 6.1 -46.4 -2 -49.4 -12.8C-52.4 -23.7 -47.5 -37.2 -37.9 -46.6C-28.4 -55.9 -14.2 -61.1 0.5 -61.7C15.2 -62.3 30.4 -58.3 37.3 -48.5Z"
        fill="#3c31dd"></path>
    </g>
    <g transform="translate(46 365)">
      <path
        d="M42.6 -51.8C55.4 -40 66 -26.8 64.3 -14.6C62.5 -2.4 48.4 8.7 37.8 16.9C27.2 25.2 20.2 30.6 12.4 33C4.6 35.4 -3.9 34.8 -13.8 33.2C-23.6 31.7 -34.9 29.1 -42.8 21.7C-50.7 14.2 -55.4 1.8 -55.7 -12.1C-56 -26 -51.9 -41.5 -41.8 -53.8C-31.8 -66 -15.9 -75.2 -0.5 -74.6C14.9 -74 29.8 -63.7 42.6 -51.8Z"
        fill="#3c31dd"></path>
    </g>
    <g transform="translate(825 416)">
      <path
        d="M32.5 -37.3C46.8 -26.6 66.4 -20.9 72.9 -9.1C79.5 2.6 72.9 20.5 62.2 33.1C51.6 45.8 36.9 53.3 22.9 54.9C9 56.4 -4.2 52 -17.1 47.2C-30 42.4 -42.6 37.1 -51.2 27.2C-59.8 17.2 -64.3 2.5 -63.8 -13.1C-63.3 -28.8 -57.7 -45.5 -46.2 -56.6C-34.8 -67.7 -17.4 -73.3 -4.2 -68.3C9.1 -63.4 18.1 -47.9 32.5 -37.3Z"
        fill="#3c31dd"></path>
    </g>
    <g transform="translate(195 80)">
      <path
        d="M32.9 -38.6C48.5 -26.2 71 -21.3 80.6 -8.1C90.3 5.1 87 26.8 73.8 36.1C60.6 45.4 37.5 42.4 18.8 47.2C0.1 52.1 -14 64.8 -22.6 61.8C-31.1 58.8 -34.1 40.1 -41.9 24.9C-49.8 9.8 -62.7 -1.8 -63.2 -13.3C-63.8 -24.9 -52.1 -36.5 -39.5 -49.4C-26.9 -62.4 -13.4 -76.7 -2.4 -73.9C8.7 -71 17.3 -51 32.9 -38.6Z"
        fill="#3c31dd"></path>
    </g>
    <g transform="translate(308 442)">
      <path
        d="M75.3 -84.6C96 -72.3 110.2 -47.1 107 -24.8C103.8 -2.6 83.2 16.8 69.3 39C55.3 61.2 47.9 86.3 30.7 99C13.4 111.7 -13.8 112.1 -38 103.6C-62.3 95.1 -83.6 77.9 -86.4 57.5C-89.1 37 -73.2 13.5 -66.5 -9.5C-59.8 -32.5 -62.3 -54.9 -52.8 -69.2C-43.2 -83.5 -21.6 -89.6 2.8 -93C27.3 -96.4 54.5 -96.9 75.3 -84.6Z"
        fill="#3c31dd"></path>
    </g>
  </g>
</svg>