<svg id="visual" viewBox="0 0 675 900" width="675" height="900" xmlns="http://www.w3.org/2000/svg"
  xmlns:xlink="http://www.w3.org/1999/xlink" version="1.1">
  <rect width="675" height="900" fill="#202731">
  </rect>
  <g>
    <g transform="translate(178 568)">
      <path
        d="M66 -72.9C90.7 -57.9 119.6 -42 133 -16.1C146.3 9.9 144.2 46 124 62.8C103.8 79.6 65.5 77.2 36.5 78.1C7.5 79 -12.2 83.4 -25.7 76.1C-39.2 68.8 -46.5 50 -58.7 32.3C-70.9 14.6 -87.8 -2 -89.5 -19.8C-91.2 -37.7 -77.5 -56.8 -60 -73.1C-42.5 -89.4 -21.3 -102.7 -0.3 -102.3C20.6 -101.9 41.2 -87.8 66 -72.9Z"
        fill="#3c31dd"></path>
    </g>
    <g transform="translate(623 777)">
      <path
        d="M59.1 -63.1C75.4 -56.8 86.6 -37 83.3 -20C79.9 -2.9 62.2 11.4 51.4 29.2C40.6 47.1 36.7 68.6 24.9 76.2C13.2 83.9 -6.5 77.7 -19.6 67.2C-32.7 56.6 -39.4 41.6 -43 28.3C-46.6 14.9 -47.1 3.3 -47 -10.2C-46.9 -23.7 -46.2 -38.9 -38.3 -46.8C-30.3 -54.6 -15.2 -54.9 3.1 -58.6C21.4 -62.4 42.8 -69.5 59.1 -63.1Z"
        fill="#3c31dd"></path>
    </g>
    <g transform="translate(343 74)">
      <path
        d="M42.5 -39.1C61.9 -34.4 89.2 -27.5 96.3 -13.2C103.3 1.1 90.1 22.8 74.3 36C58.4 49.1 39.8 53.8 23.7 55.5C7.6 57.2 -6.1 55.9 -16.6 50.1C-27.1 44.4 -34.3 34.1 -46.5 22.3C-58.7 10.5 -76.1 -3 -78.8 -18.5C-81.6 -34.1 -69.9 -51.7 -54.4 -57.2C-38.8 -62.6 -19.4 -55.8 -3.9 -51.1C11.6 -46.4 23.1 -43.9 42.5 -39.1Z"
        fill="#3c31dd"></path>
    </g>
    <g transform="translate(501 411)">
      <path
        d="M52.3 -65.5C65.6 -51.1 72.7 -32.6 70.5 -16.7C68.2 -0.8 56.5 12.6 47.6 26.9C38.7 41.3 32.4 56.7 20.5 64.7C8.5 72.7 -9.2 73.2 -25.8 68.3C-42.4 63.3 -57.9 52.9 -70 37.7C-82.1 22.4 -90.8 2.4 -84.9 -12.2C-79 -26.8 -58.5 -36 -41.9 -49.8C-25.3 -63.5 -12.7 -81.8 3.4 -85.9C19.5 -89.9 39 -79.8 52.3 -65.5Z"
        fill="#3c31dd"></path>
    </g>
    <g transform="translate(18 143)">
      <path
        d="M46.1 -58.9C54.9 -47.6 53.7 -28.4 57.8 -9.5C61.9 9.4 71.4 28 66.1 39.1C60.8 50.1 40.8 53.6 21.1 62.9C1.3 72.3 -18.1 87.6 -31.8 84.1C-45.6 80.5 -53.7 58.1 -60.6 38.6C-67.6 19.2 -73.3 2.6 -77.8 -21.1C-82.4 -44.8 -85.9 -75.6 -72.7 -86.1C-59.5 -96.6 -29.8 -86.7 -5.5 -80.1C18.7 -73.5 37.4 -70.2 46.1 -58.9Z"
        fill="#3c31dd"></path>
    </g>
  </g>
</svg>