<svg id="visual" viewBox="0 0 900 250" width="900" height="250" xmlns="http://www.w3.org/2000/svg"
  xmlns:xlink="http://www.w3.org/1999/xlink" version="1.1">
  <rect x="0" y="0" width="900" height="250" fill="#ff0066"></rect>
  <path
    d="M0 191L16.7 183.2C33.3 175.3 66.7 159.7 100 155.3C133.3 151 166.7 158 200 162.5C233.3 167 266.7 169 300 174.7C333.3 180.3 366.7 189.7 400 191.5C433.3 193.3 466.7 187.7 500 177.3C533.3 167 566.7 152 600 148C633.3 144 666.7 151 700 160C733.3 169 766.7 180 800 173.5C833.3 167 866.7 143 883.3 131L900 119L900 0L883.3 0C866.7 0 833.3 0 800 0C766.7 0 733.3 0 700 0C666.7 0 633.3 0 600 0C566.7 0 533.3 0 500 0C466.7 0 433.3 0 400 0C366.7 0 333.3 0 300 0C266.7 0 233.3 0 200 0C166.7 0 133.3 0 100 0C66.7 0 33.3 0 16.7 0L0 0Z"
    fill="#ff0066"></path>
  <path
    d="M0 151L16.7 151.3C33.3 151.7 66.7 152.3 100 153.3C133.3 154.3 166.7 155.7 200 147C233.3 138.3 266.7 119.7 300 112.2C333.3 104.7 366.7 108.3 400 115.3C433.3 122.3 466.7 132.7 500 136.8C533.3 141 566.7 139 600 132.3C633.3 125.7 666.7 114.3 700 115.7C733.3 117 766.7 131 800 140.2C833.3 149.3 866.7 153.7 883.3 155.8L900 158L900 0L883.3 0C866.7 0 833.3 0 800 0C766.7 0 733.3 0 700 0C666.7 0 633.3 0 600 0C566.7 0 533.3 0 500 0C466.7 0 433.3 0 400 0C366.7 0 333.3 0 300 0C266.7 0 233.3 0 200 0C166.7 0 133.3 0 100 0C66.7 0 33.3 0 16.7 0L0 0Z"
    fill="#e4006d"></path>
  <path
    d="M0 125L16.7 124.7C33.3 124.3 66.7 123.7 100 120.8C133.3 118 166.7 113 200 113.7C233.3 114.3 266.7 120.7 300 119.5C333.3 118.3 366.7 109.7 400 106.3C433.3 103 466.7 105 500 104C533.3 103 566.7 99 600 103.3C633.3 107.7 666.7 120.3 700 122C733.3 123.7 766.7 114.3 800 114.8C833.3 115.3 866.7 125.7 883.3 130.8L900 136L900 0L883.3 0C866.7 0 833.3 0 800 0C766.7 0 733.3 0 700 0C666.7 0 633.3 0 600 0C566.7 0 533.3 0 500 0C466.7 0 433.3 0 400 0C366.7 0 333.3 0 300 0C266.7 0 233.3 0 200 0C166.7 0 133.3 0 100 0C66.7 0 33.3 0 16.7 0L0 0Z"
    fill="#c70071"></path>
  <path
    d="M0 84L16.7 88.5C33.3 93 66.7 102 100 105.8C133.3 109.7 166.7 108.3 200 100.8C233.3 93.3 266.7 79.7 300 76.5C333.3 73.3 366.7 80.7 400 88.3C433.3 96 466.7 104 500 100.7C533.3 97.3 566.7 82.7 600 73.7C633.3 64.7 666.7 61.3 700 60.7C733.3 60 766.7 62 800 62.7C833.3 63.3 866.7 62.7 883.3 62.3L900 62L900 0L883.3 0C866.7 0 833.3 0 800 0C766.7 0 733.3 0 700 0C666.7 0 633.3 0 600 0C566.7 0 533.3 0 500 0C466.7 0 433.3 0 400 0C366.7 0 333.3 0 300 0C266.7 0 233.3 0 200 0C166.7 0 133.3 0 100 0C66.7 0 33.3 0 16.7 0L0 0Z"
    fill="#a90872"></path>
  <path
    d="M0 77L16.7 75.8C33.3 74.7 66.7 72.3 100 68.2C133.3 64 166.7 58 200 59.2C233.3 60.3 266.7 68.7 300 68.5C333.3 68.3 366.7 59.7 400 54.5C433.3 49.3 466.7 47.7 500 51.2C533.3 54.7 566.7 63.3 600 67.3C633.3 71.3 666.7 70.7 700 65.5C733.3 60.3 766.7 50.7 800 51.2C833.3 51.7 866.7 62.3 883.3 67.7L900 73L900 0L883.3 0C866.7 0 833.3 0 800 0C766.7 0 733.3 0 700 0C666.7 0 633.3 0 600 0C566.7 0 533.3 0 500 0C466.7 0 433.3 0 400 0C366.7 0 333.3 0 300 0C266.7 0 233.3 0 200 0C166.7 0 133.3 0 100 0C66.7 0 33.3 0 16.7 0L0 0Z"
    fill="#8b136e"></path>
  <path
    d="M0 27L16.7 30.7C33.3 34.3 66.7 41.7 100 45.5C133.3 49.3 166.7 49.7 200 46.3C233.3 43 266.7 36 300 32.2C333.3 28.3 366.7 27.7 400 30C433.3 32.3 466.7 37.7 500 37C533.3 36.3 566.7 29.7 600 30.3C633.3 31 666.7 39 700 40.8C733.3 42.7 766.7 38.3 800 38.5C833.3 38.7 866.7 43.3 883.3 45.7L900 48L900 0L883.3 0C866.7 0 833.3 0 800 0C766.7 0 733.3 0 700 0C666.7 0 633.3 0 600 0C566.7 0 533.3 0 500 0C466.7 0 433.3 0 400 0C366.7 0 333.3 0 300 0C266.7 0 233.3 0 200 0C166.7 0 133.3 0 100 0C66.7 0 33.3 0 16.7 0L0 0Z"
    fill="#6d1867"></path>
</svg>