<svg id="blobs" viewBox="0 0 900 450" width="900" height="450" xmlns="http://www.w3.org/2000/svg"
	xmlns:xlink="http://www.w3.org/1999/xlink" version="1.1">
	<g transform="translate(424.4375811364554 183.49428390140923)">
		<path id="blob1"
			d="M103.3 -154.2C148.9 -152.5 211.3 -155.3 244.5 -130.3C277.8 -105.3 281.9 -52.7 279.9 -1.2C277.8 50.3 269.7 100.7 250.2 149.4C230.6 198.1 199.7 245.2 156.1 248.1C112.5 251.1 56.3 209.9 6.3 199C-43.7 188.1 -87.3 207.5 -131.9 205.1C-176.5 202.8 -222.1 178.6 -228.4 140.8C-234.7 103 -201.9 51.5 -188.7 7.6C-175.6 -36.3 -182.2 -72.7 -169.8 -99.9C-157.4 -127.2 -125.9 -145.5 -94.5 -155.3C-63 -165.1 -31.5 -166.6 -1.3 -164.3C28.8 -161.9 57.7 -155.9 103.3 -154.2">
		</path>
	</g>
	<g transform="translate(450.67463675893003 228.7479545448259)">
		<path id="blob2" style="visibility: hidden"
			d="M107.2 -172C145.7 -163.4 188.5 -148.5 227.6 -118.7C266.7 -89 302.1 -44.5 290.2 -6.8C278.4 30.8 219.3 61.7 179.1 89.4C138.8 117.1 117.4 141.7 90.7 154.4C64 167.1 32 167.9 -1.5 170.5C-35 173.1 -70 177.5 -94.5 163.5C-119.1 149.6 -133.1 117.3 -171.6 87C-210.1 56.7 -273.1 28.3 -289.4 -9.4C-305.7 -47.2 -275.4 -94.3 -234.3 -120.2C-193.2 -146 -141.4 -150.5 -100.5 -157.8C-59.7 -165 -29.8 -175 2.2 -178.9C34.3 -182.8 68.7 -180.6 107.2 -172">
		</path>
	</g>
</svg>