<svg id="visual" viewBox="0 0 900 250" width="900" height="250" xmlns="http://www.w3.org/2000/svg"
  xmlns:xlink="http://www.w3.org/1999/xlink" version="1.1">
  <rect x="0" y="0" width="900" height="250" fill="#202731">
  </rect>
  <path
    d="M0 216L10.7 214.7C21.3 213.3 42.7 210.7 64.2 195.8C85.7 181 107.3 154 128.8 149C150.3 144 171.7 161 193 167.8C214.3 174.7 235.7 171.3 257 168.5C278.3 165.7 299.7 163.3 321.2 160.5C342.7 157.7 364.3 154.3 385.8 151.3C407.3 148.3 428.7 145.7 450 141.7C471.3 137.7 492.7 132.3 514.2 142.8C535.7 153.3 557.3 179.7 578.8 183.2C600.3 186.7 621.7 167.3 643 163C664.3 158.7 685.7 169.3 707 165.3C728.3 161.3 749.7 142.7 771.2 133.3C792.7 124 814.3 124 835.8 129C857.3 134 878.7 144 889.3 149L900 154L900 0L889.3 0C878.7 0 857.3 0 835.8 0C814.3 0 792.7 0 771.2 0C749.7 0 728.3 0 707 0C685.7 0 664.3 0 643 0C621.7 0 600.3 0 578.8 0C557.3 0 535.7 0 514.2 0C492.7 0 471.3 0 450 0C428.7 0 407.3 0 385.8 0C364.3 0 342.7 0 321.2 0C299.7 0 278.3 0 257 0C235.7 0 214.3 0 193 0C171.7 0 150.3 0 128.8 0C107.3 0 85.7 0 64.2 0C42.7 0 21.3 0 10.7 0L0 0Z"
    fill="#202731">
  </path>
  <path
    d="M0 100L10.7 103.5C21.3 107 42.7 114 64.2 115.5C85.7 117 107.3 113 128.8 121.7C150.3 130.3 171.7 151.7 193 160C214.3 168.3 235.7 163.7 257 161.7C278.3 159.7 299.7 160.3 321.2 151.8C342.7 143.3 364.3 125.7 385.8 118.8C407.3 112 428.7 116 450 128.7C471.3 141.3 492.7 162.7 514.2 165C535.7 167.3 557.3 150.7 578.8 138.5C600.3 126.3 621.7 118.7 643 123.3C664.3 128 685.7 145 707 151.5C728.3 158 749.7 154 771.2 148.7C792.7 143.3 814.3 136.7 835.8 130.7C857.3 124.7 878.7 119.3 889.3 116.7L900 114L900 0L889.3 0C878.7 0 857.3 0 835.8 0C814.3 0 792.7 0 771.2 0C749.7 0 728.3 0 707 0C685.7 0 664.3 0 643 0C621.7 0 600.3 0 578.8 0C557.3 0 535.7 0 514.2 0C492.7 0 471.3 0 450 0C428.7 0 407.3 0 385.8 0C364.3 0 342.7 0 321.2 0C299.7 0 278.3 0 257 0C235.7 0 214.3 0 193 0C171.7 0 150.3 0 128.8 0C107.3 0 85.7 0 64.2 0C42.7 0 21.3 0 10.7 0L0 0Z"
    fill="#2f3558">
  </path>
  <path
    d="M0 138L10.7 130C21.3 122 42.7 106 64.2 102.5C85.7 99 107.3 108 128.8 116.5C150.3 125 171.7 133 193 138C214.3 143 235.7 145 257 140C278.3 135 299.7 123 321.2 120.3C342.7 117.7 364.3 124.3 385.8 123.5C407.3 122.7 428.7 114.3 450 110.2C471.3 106 492.7 106 514.2 106.5C535.7 107 557.3 108 578.8 108.3C600.3 108.7 621.7 108.3 643 111.5C664.3 114.7 685.7 121.3 707 123.8C728.3 126.3 749.7 124.7 771.2 119C792.7 113.3 814.3 103.7 835.8 97C857.3 90.3 878.7 86.7 889.3 84.8L900 83L900 0L889.3 0C878.7 0 857.3 0 835.8 0C814.3 0 792.7 0 771.2 0C749.7 0 728.3 0 707 0C685.7 0 664.3 0 643 0C621.7 0 600.3 0 578.8 0C557.3 0 535.7 0 514.2 0C492.7 0 471.3 0 450 0C428.7 0 407.3 0 385.8 0C364.3 0 342.7 0 321.2 0C299.7 0 278.3 0 257 0C235.7 0 214.3 0 193 0C171.7 0 150.3 0 128.8 0C107.3 0 85.7 0 64.2 0C42.7 0 21.3 0 10.7 0L0 0Z"
    fill="#583c77">
  </path>
  <path
    d="M0 71L10.7 77.8C21.3 84.7 42.7 98.3 64.2 103.8C85.7 109.3 107.3 106.7 128.8 106.8C150.3 107 171.7 110 193 104C214.3 98 235.7 83 257 73.7C278.3 64.3 299.7 60.7 321.2 64.3C342.7 68 364.3 79 385.8 89.5C407.3 100 428.7 110 450 109C471.3 108 492.7 96 514.2 95.2C535.7 94.3 557.3 104.7 578.8 103.7C600.3 102.7 621.7 90.3 643 87.8C664.3 85.3 685.7 92.7 707 97.5C728.3 102.3 749.7 104.7 771.2 101.7C792.7 98.7 814.3 90.3 835.8 88.3C857.3 86.3 878.7 90.7 889.3 92.8L900 95L900 0L889.3 0C878.7 0 857.3 0 835.8 0C814.3 0 792.7 0 771.2 0C749.7 0 728.3 0 707 0C685.7 0 664.3 0 643 0C621.7 0 600.3 0 578.8 0C557.3 0 535.7 0 514.2 0C492.7 0 471.3 0 450 0C428.7 0 407.3 0 385.8 0C364.3 0 342.7 0 321.2 0C299.7 0 278.3 0 257 0C235.7 0 214.3 0 193 0C171.7 0 150.3 0 128.8 0C107.3 0 85.7 0 64.2 0C42.7 0 21.3 0 10.7 0L0 0Z"
    fill="#903886">
  </path>
  <path
    d="M0 65L10.7 63.8C21.3 62.7 42.7 60.3 64.2 55.8C85.7 51.3 107.3 44.7 128.8 42.5C150.3 40.3 171.7 42.7 193 47C214.3 51.3 235.7 57.7 257 64.7C278.3 71.7 299.7 79.3 321.2 81C342.7 82.7 364.3 78.3 385.8 77C407.3 75.7 428.7 77.3 450 75.2C471.3 73 492.7 67 514.2 67.2C535.7 67.3 557.3 73.7 578.8 74.5C600.3 75.3 621.7 70.7 643 65C664.3 59.3 685.7 52.7 707 49.7C728.3 46.7 749.7 47.3 771.2 51.3C792.7 55.3 814.3 62.7 835.8 63.7C857.3 64.7 878.7 59.3 889.3 56.7L900 54L900 0L889.3 0C878.7 0 857.3 0 835.8 0C814.3 0 792.7 0 771.2 0C749.7 0 728.3 0 707 0C685.7 0 664.3 0 643 0C621.7 0 600.3 0 578.8 0C557.3 0 535.7 0 514.2 0C492.7 0 471.3 0 450 0C428.7 0 407.3 0 385.8 0C364.3 0 342.7 0 321.2 0C299.7 0 278.3 0 257 0C235.7 0 214.3 0 193 0C171.7 0 150.3 0 128.8 0C107.3 0 85.7 0 64.2 0C42.7 0 21.3 0 10.7 0L0 0Z"
    fill="#cc2480">
  </path>
  <path
    d="M0 13L10.7 16.7C21.3 20.3 42.7 27.7 64.2 30.8C85.7 34 107.3 33 128.8 35C150.3 37 171.7 42 193 44.2C214.3 46.3 235.7 45.7 257 40.2C278.3 34.7 299.7 24.3 321.2 19.8C342.7 15.3 364.3 16.7 385.8 20C407.3 23.3 428.7 28.7 450 30.5C471.3 32.3 492.7 30.7 514.2 31C535.7 31.3 557.3 33.7 578.8 36.7C600.3 39.7 621.7 43.3 643 46.5C664.3 49.7 685.7 52.3 707 50.3C728.3 48.3 749.7 41.7 771.2 38.3C792.7 35 814.3 35 835.8 38.2C857.3 41.3 878.7 47.7 889.3 50.8L900 54L900 0L889.3 0C878.7 0 857.3 0 835.8 0C814.3 0 792.7 0 771.2 0C749.7 0 728.3 0 707 0C685.7 0 664.3 0 643 0C621.7 0 600.3 0 578.8 0C557.3 0 535.7 0 514.2 0C492.7 0 471.3 0 450 0C428.7 0 407.3 0 385.8 0C364.3 0 342.7 0 321.2 0C299.7 0 278.3 0 257 0C235.7 0 214.3 0 193 0C171.7 0 150.3 0 128.8 0C107.3 0 85.7 0 64.2 0C42.7 0 21.3 0 10.7 0L0 0Z"
    fill="#ff0066">
  </path>
</svg>